<svg width="34" height="34" viewBox="0 0 34 34" fill="none" xmlns="http://www.w3.org/2000/svg">
<circle cx="17" cy="17" r="8.5" fill="#D9D9D9"/>
<g filter="url(#filter0_d_99_58)">
<path d="M17 4.40723C23.9546 4.40732 29.5928 10.0454 29.5928 17C29.5927 23.9546 23.9546 29.5927 17 29.5928C10.0454 29.5928 4.40732 23.9546 4.40723 17C4.40723 10.0453 10.0453 4.40723 17 4.40723ZM17 6.92578C11.4362 6.92578 6.92578 11.4362 6.92578 17C6.92578 22.5638 11.4362 27.0742 17 27.0742C22.5638 27.0742 27.0742 22.5638 27.0742 17C27.0742 11.4362 22.5638 6.92578 17 6.92578Z" fill="#D9D9D9"/>
</g>
<defs>
<filter id="filter0_d_99_58" x="3.52575" y="2.89612" width="29.467" height="29.467" filterUnits="userSpaceOnUse" color-interpolation-filters="sRGB">
<feFlood flood-opacity="0" result="BackgroundImageFix"/>
<feColorMatrix in="SourceAlpha" type="matrix" values="0 0 0 0 0 0 0 0 0 0 0 0 0 0 0 0 0 0 127 0" result="hardAlpha"/>
<feOffset dx="1.25926" dy="0.62963"/>
<feGaussianBlur stdDeviation="1.07037"/>
<feComposite in2="hardAlpha" operator="out"/>
<feColorMatrix type="matrix" values="0 0 0 0 0 0 0 0 0 0 0 0 0 0 0 0 0 0 0.53 0"/>
<feBlend mode="normal" in2="BackgroundImageFix" result="effect1_dropShadow_99_58"/>
<feBlend mode="normal" in="SourceGraphic" in2="effect1_dropShadow_99_58" result="shape"/>
</filter>
</defs>
</svg>
